<?xml version="1.0" encoding="UTF-8" standalone="no"?>
<svg
   xmlns:dc="http://purl.org/dc/elements/1.1/"
   xmlns:cc="http://creativecommons.org/ns#"
   xmlns:rdf="http://www.w3.org/1999/02/22-rdf-syntax-ns#"
   xmlns:svg="http://www.w3.org/2000/svg"
   xmlns="http://www.w3.org/2000/svg"
   xmlns:sodipodi="http://sodipodi.sourceforge.net/DTD/sodipodi-0.dtd"
   xmlns:inkscape="http://www.inkscape.org/namespaces/inkscape"
   width="540mm"
   height="406.39999mm"
   version="1.1"
   id="svg4"
   sodipodi:docname="list.svg"
   inkscape:version="0.92.4 (5da689c313, 2019-01-14)">
  <metadata
     id="metadata10">
    <rdf:RDF>
      <cc:Work
         rdf:about="">
        <dc:format>image/svg+xml</dc:format>
        <dc:type
           rdf:resource="http://purl.org/dc/dcmitype/StillImage" />
        <dc:title></dc:title>
      </cc:Work>
    </rdf:RDF>
  </metadata>
  <defs
     id="defs8" />
  <sodipodi:namedview
     pagecolor="#ffffff"
     bordercolor="#666666"
     borderopacity="1"
     objecttolerance="10"
     gridtolerance="10"
     guidetolerance="10"
     inkscape:pageopacity="0"
     inkscape:pageshadow="2"
     inkscape:window-width="1280"
     inkscape:window-height="959"
     id="namedview6"
     showgrid="false"
     units="mm"
     inkscape:zoom="0.15364583"
     inkscape:cx="-237.4517"
     inkscape:cy="768"
     inkscape:window-x="0"
     inkscape:window-y="0"
     inkscape:window-maximized="1"
     inkscape:current-layer="svg4" />
  <path
     d="m 380.47244,1248 v 192 c 0,17 -15,32 -32,32 h -192 c -17,0 -32,-15 -32,-32 v -192 c 0,-17 15,-32 32,-32 h 192 c 17,0 32,15 32,32 z m 0,-384 v 192 c 0,17 -15,32 -32,32 h -192 c -17,0 -32,-15 -32,-32 V 864 c 0,-17 15,-32 32,-32 h 192 c 17,0 32,15 32,32 z m 0,-384 v 192 c 0,17 -15,32 -32,32 h -192 c -17,0 -32,-15 -32,-32 V 480 c 0,-17 15,-32 32,-32 h 192 c 17,0 32,15 32,32 z m 1535.99996,768 v 192 c 0,17 -15,32 -32,32 H 540.47244 c -17,0 -32,-15 -32,-32 v -192 c 0,-17 15,-32 32,-32 H 1884.4724 c 17,0 32,15 32,32 z M 380.47244,96 v 192 c 0,17 -15,32 -32,32 h -192 c -17,0 -32,-15 -32,-32 V 96 c 0,-17 15,-32 32,-32 h 192 c 17,0 32,15 32,32 z M 1916.4724,864 v 192 c 0,17 -15,32 -32,32 H 540.47244 c -17,0 -32,-15 -32,-32 V 864 c 0,-17 15,-32 32,-32 H 1884.4724 c 17,0 32,15 32,32 z m 0,-384 v 192 c 0,17 -15,32 -32,32 H 540.47244 c -17,0 -32,-15 -32,-32 V 480 c 0,-17 15,-32 32,-32 H 1884.4724 c 17,0 32,15 32,32 z m 0,-384 v 192 c 0,17 -15,32 -32,32 H 540.47244 c -17,0 -32,-15 -32,-32 V 96 c 0,-17 15,-32 32,-32 H 1884.4724 c 17,0 32,15 32,32 z"
     id="path2"
     inkscape:connector-curvature="0" />
</svg>
