<?xml version="1.0" encoding="UTF-8" standalone="no"?>
<svg
   xmlns:dc="http://purl.org/dc/elements/1.1/"
   xmlns:cc="http://creativecommons.org/ns#"
   xmlns:rdf="http://www.w3.org/1999/02/22-rdf-syntax-ns#"
   xmlns:svg="http://www.w3.org/2000/svg"
   xmlns="http://www.w3.org/2000/svg"
   xmlns:sodipodi="http://sodipodi.sourceforge.net/DTD/sodipodi-0.dtd"
   xmlns:inkscape="http://www.inkscape.org/namespaces/inkscape"
   width="540mm"
   height="406.39999mm"
   version="1.1"
   id="svg4"
   sodipodi:docname="users.svg"
   inkscape:version="0.92.4 (5da689c313, 2019-01-14)">
  <metadata
     id="metadata10">
    <rdf:RDF>
      <cc:Work
         rdf:about="">
        <dc:format>image/svg+xml</dc:format>
        <dc:type
           rdf:resource="http://purl.org/dc/dcmitype/StillImage" />
        <dc:title></dc:title>
      </cc:Work>
    </rdf:RDF>
  </metadata>
  <defs
     id="defs8" />
  <sodipodi:namedview
     pagecolor="#ffffff"
     bordercolor="#666666"
     borderopacity="1"
     objecttolerance="10"
     gridtolerance="10"
     guidetolerance="10"
     inkscape:pageopacity="0"
     inkscape:pageshadow="2"
     inkscape:window-width="1280"
     inkscape:window-height="959"
     id="namedview6"
     showgrid="false"
     units="mm"
     inkscape:zoom="0.26"
     inkscape:cx="219.61538"
     inkscape:cy="640"
     inkscape:window-x="0"
     inkscape:window-y="0"
     inkscape:window-maximized="1"
     inkscape:current-layer="svg4" />
  <path
     d="m 710.855,768.00002 c -87.739,2.53093 -167.04156,40.49492 -223.56572,107.9865 H 374.24095 c -84.36442,0 -163.66698,-40.49496 -163.66698,-134.13947 0,-68.33518 -2.53093,-297.80642 104.61188,-297.80642 17.71653,0 105.45553,71.70976 219.34751,71.70976 38.80763,0 75.92798,-6.74915 112.20468,-19.40382 -2.53093,18.56018 -4.21822,37.12035 -4.21822,55.68052 0,76.77163 24.46568,152.69961 68.33518,215.97293 z m 903.5429,537.40138 c 0,136.6703 -90.2699,218.5038 -225.253,218.5038 H 651.79991 c -134.98308,0 -225.25302,-81.8335 -225.25302,-218.5038 0,-190.6636 44.71315,-483.40815 291.90091,-483.40815 28.68391,0 133.29579,117.26657 302.0246,117.26657 168.7288,0 273.3407,-117.26657 302.0246,-117.26657 247.1878,0 291.9009,292.74455 291.9009,483.40815 z M 750.50628,228.06771 c 0,118.95383 -97.01908,215.97292 -215.97292,215.97292 -118.95384,0 -215.97293,-97.01909 -215.97293,-215.97292 0,-118.95384 97.01909,-215.972927 215.97293,-215.972927 118.95384,0 215.97292,97.019087 215.97292,215.972927 z m 593.92552,323.95938 c 0,178.85258 -145.1068,323.95943 -323.9594,323.95943 -178.85254,0 -323.95935,-145.10685 -323.95935,-323.95943 0,-178.85257 145.10681,-323.95938 323.95935,-323.95938 178.8526,0 323.9594,145.10681 323.9594,323.95938 z m 485.9391,189.81996 c 0,93.64451 -79.3026,134.13947 -163.667,134.13947 h -113.0483 c -56.5242,-67.49158 -135.8268,-105.45557 -223.5658,-107.9865 43.8695,-63.27332 68.3352,-139.2013 68.3352,-215.97293 0,-18.56017 -1.6873,-37.12034 -4.2182,-55.68052 36.2767,12.65467 73.397,19.40382 112.2047,19.40382 113.892,0 201.631,-71.70976 219.3475,-71.70976 107.1428,0 104.6119,229.47124 104.6119,297.80642 z M 1722.3844,228.06771 c 0,118.95383 -97.0191,215.97292 -215.9729,215.97292 -118.9539,0 -215.9729,-97.01909 -215.9729,-215.97292 0,-118.95384 97.019,-215.972927 215.9729,-215.972927 118.9538,0 215.9729,97.019087 215.9729,215.972927 z"
     id="path2"
     inkscape:connector-curvature="0"
     style="stroke-width:0.84364426" />
</svg>
