<?xml version="1.0" encoding="UTF-8" standalone="no"?>
<svg
   xmlns:dc="http://purl.org/dc/elements/1.1/"
   xmlns:cc="http://creativecommons.org/ns#"
   xmlns:rdf="http://www.w3.org/1999/02/22-rdf-syntax-ns#"
   xmlns:svg="http://www.w3.org/2000/svg"
   xmlns="http://www.w3.org/2000/svg"
   xmlns:sodipodi="http://sodipodi.sourceforge.net/DTD/sodipodi-0.dtd"
   xmlns:inkscape="http://www.inkscape.org/namespaces/inkscape"
   width="540mm"
   height="406.39999mm"
   version="1.1"
   id="svg4"
   sodipodi:docname="heartbeat.svg"
   inkscape:version="0.92.4 (5da689c313, 2019-01-14)">
  <metadata
     id="metadata10">
    <rdf:RDF>
      <cc:Work
         rdf:about="">
        <dc:format>image/svg+xml</dc:format>
        <dc:type
           rdf:resource="http://purl.org/dc/dcmitype/StillImage" />
        <dc:title></dc:title>
      </cc:Work>
    </rdf:RDF>
  </metadata>
  <defs
     id="defs8" />
  <sodipodi:namedview
     pagecolor="#ffffff"
     bordercolor="#666666"
     borderopacity="1"
     objecttolerance="10"
     gridtolerance="10"
     guidetolerance="10"
     inkscape:pageopacity="0"
     inkscape:pageshadow="2"
     inkscape:window-width="1280"
     inkscape:window-height="959"
     id="namedview6"
     showgrid="false"
     units="mm"
     inkscape:zoom="0.15364583"
     inkscape:cx="-484.88136"
     inkscape:cy="768"
     inkscape:window-x="0"
     inkscape:window-y="0"
     inkscape:window-maximized="1"
     inkscape:current-layer="svg4" />
  <path
     d="m 1404.4724,895.99997 h 305 c -12,13 -20,20 -22,22 l -623,600.00003 c -12,12 -28,18 -44,18 -16,0 -31.99996,-6 -43.99996,-18 l -624,-602.00003 c -2,-1 -10,-8 -21,-20 h 369 c 29,0 55,-20 62,-47.99996 l 70,-281 L 1022.4724,1234 c 8,27 33,46 62,46 28,0 53,-19 61,-46 l 146,-484.99999 56,112 c 11,20.99996 33,34.99996 57,34.99996 z m 512,-427.99996 c 0,115 -50,220 -103,300 h -369 l -111,-221 c -11,-23 -37,-37 -62,-35 -27,3 -49,20 -56,46 l -129,429.99996 -195.99996,-685.99996 c -8,-27 -33,-46 -63,-46 -29,0 -54,20 -61,48 l -116,464 h -423 c -53,-80 -103,-185 -103,-300 0,-293 179,-468.0000015342026 478,-468.0000015342026 175,0 339,138.0000015342026 417.99996,216.0000015342026 79,-78 243,-216.0000015342026 418,-216.0000015342026 299,0 478,175.0000015342026 478,468.0000015342026 z"
     id="path2"
     inkscape:connector-curvature="0" />
</svg>
