<?xml version="1.0" encoding="UTF-8" standalone="no"?>
<svg
   xmlns:dc="http://purl.org/dc/elements/1.1/"
   xmlns:cc="http://creativecommons.org/ns#"
   xmlns:rdf="http://www.w3.org/1999/02/22-rdf-syntax-ns#"
   xmlns:svg="http://www.w3.org/2000/svg"
   xmlns="http://www.w3.org/2000/svg"
   xmlns:sodipodi="http://sodipodi.sourceforge.net/DTD/sodipodi-0.dtd"
   xmlns:inkscape="http://www.inkscape.org/namespaces/inkscape"
   width="540mm"
   height="406.39999mm"
   version="1.1"
   id="svg4"
   sodipodi:docname="life-ring.svg"
   inkscape:version="0.92.4 (5da689c313, 2019-01-14)">
  <metadata
     id="metadata10">
    <rdf:RDF>
      <cc:Work
         rdf:about="">
        <dc:format>image/svg+xml</dc:format>
        <dc:type
           rdf:resource="http://purl.org/dc/dcmitype/StillImage" />
        <dc:title></dc:title>
      </cc:Work>
    </rdf:RDF>
  </metadata>
  <defs
     id="defs8" />
  <sodipodi:namedview
     pagecolor="#ffffff"
     bordercolor="#666666"
     borderopacity="1"
     objecttolerance="10"
     gridtolerance="10"
     guidetolerance="10"
     inkscape:pageopacity="0"
     inkscape:pageshadow="2"
     inkscape:window-width="1280"
     inkscape:window-height="959"
     id="namedview6"
     showgrid="false"
     units="mm"
     inkscape:zoom="0.15364583"
     inkscape:cx="-484.88136"
     inkscape:cy="768"
     inkscape:window-x="0"
     inkscape:window-y="0"
     inkscape:window-maximized="1"
     inkscape:current-layer="svg4" />
  <path
     d="m 1020.4724,12.094493 c 417.604,0 755.9055,338.301457 755.9055,755.905507 0,417.6041 -338.3015,755.9055 -755.9055,755.9055 -417.604,0 -755.90546,-338.3014 -755.90546,-755.9055 0,-417.60405 338.30146,-755.905507 755.90546,-755.905507 z m 0,107.986497 c -109.67374,0 -213.44202,27.84027 -304.55563,75.92801 l 163.66704,163.66704 c 44.71316,-15.1856 91.95726,-23.62204 140.88859,-23.62204 49.7751,0 96.1755,8.43644 140.8886,23.62204 L 1325.0281,196.009 c -91.1136,-48.08774 -194.8819,-75.92801 -304.5557,-75.92801 z M 448.48145,1072.5557 612.14849,908.88858 C 596.96289,864.17546 588.52644,816.93139 588.52644,768 c 0,-49.77503 8.43645,-96.17548 23.62205,-140.88864 L 448.48145,463.44432 C 400.39371,554.55793 372.55344,658.32621 372.55344,768 c 0,109.67378 27.84027,213.44208 75.92801,304.5557 z m 571.99095,343.3633 c 109.6738,0 213.4421,-27.8403 304.5557,-75.928 L 1161.361,1176.324 c -44.7131,15.1856 -91.1135,23.622 -140.8886,23.622 -48.93133,0 -96.17543,-8.4364 -140.88859,-23.622 l -163.66704,163.667 c 91.11361,48.0877 194.88189,75.928 304.55563,75.928 z m 0,-323.9595 c 178.8526,0 323.9595,-145.10692 323.9595,-323.9595 0,-178.85264 -145.1069,-323.9595 -323.9595,-323.9595 -178.85259,0 -323.95946,145.10686 -323.95946,323.9595 0,178.85258 145.10687,323.9595 323.95946,323.9595 z m 408.324,-183.07092 163.667,163.66712 c 48.0877,-91.11362 75.928,-194.88192 75.928,-304.5557 0,-109.67379 -27.8403,-213.44207 -75.928,-304.55568 l -163.667,163.66704 c 15.1856,44.71316 23.622,91.95726 23.622,140.88864 0,48.93139 -8.4364,96.17546 -23.622,140.88858 z"
     id="path2"
     inkscape:connector-curvature="0"
     style="stroke-width:0.84364456" />
</svg>
