<?xml version="1.0" encoding="UTF-8" standalone="no"?>
<svg
   xmlns:dc="http://purl.org/dc/elements/1.1/"
   xmlns:cc="http://creativecommons.org/ns#"
   xmlns:rdf="http://www.w3.org/1999/02/22-rdf-syntax-ns#"
   xmlns:svg="http://www.w3.org/2000/svg"
   xmlns="http://www.w3.org/2000/svg"
   xmlns:sodipodi="http://sodipodi.sourceforge.net/DTD/sodipodi-0.dtd"
   xmlns:inkscape="http://www.inkscape.org/namespaces/inkscape"
   width="540mm"
   height="406.39999mm"
   version="1.1"
   id="svg4"
   sodipodi:docname="user-plus.svg"
   inkscape:version="0.92.4 (5da689c313, 2019-01-14)">
  <metadata
     id="metadata10">
    <rdf:RDF>
      <cc:Work
         rdf:about="">
        <dc:format>image/svg+xml</dc:format>
        <dc:type
           rdf:resource="http://purl.org/dc/dcmitype/StillImage" />
        <dc:title></dc:title>
      </cc:Work>
    </rdf:RDF>
  </metadata>
  <defs
     id="defs8" />
  <sodipodi:namedview
     pagecolor="#ffffff"
     bordercolor="#666666"
     borderopacity="1"
     objecttolerance="10"
     gridtolerance="10"
     guidetolerance="10"
     inkscape:pageopacity="0"
     inkscape:pageshadow="2"
     inkscape:window-width="1280"
     inkscape:window-height="959"
     id="namedview6"
     showgrid="false"
     inkscape:zoom="0.15364584"
     inkscape:cx="-194.27066"
     inkscape:cy="767.99997"
     inkscape:window-x="0"
     inkscape:window-y="0"
     inkscape:window-maximized="1"
     inkscape:current-layer="svg4"
     units="mm" />
  <path
     d="m 705.51202,767.99997 c -208.66129,0 -377.95253,-169.29124 -377.95253,-377.95253 0,-208.66129 169.29124,-377.952529 377.95253,-377.952529 208.66129,0 377.95248,169.291239 377.95248,377.952529 0,208.66129 -169.29119,377.95253 -377.95248,377.95253 z m 944.88128,125.98418 h 346.4565 c 16.7322,0 31.496,14.76377 31.496,31.49604 v 188.97631 c 0,16.7323 -14.7638,31.496 -31.496,31.496 h -346.4565 v 346.4565 c 0,16.7323 -14.7638,31.4961 -31.4961,31.4961 H 1429.921 c -16.7323,0 -31.4961,-14.7638 -31.4961,-31.4961 v -346.4565 h -346.4565 c -16.7322,0 -31.496,-14.7637 -31.496,-31.496 V 925.48019 c 0,-16.73227 14.7638,-31.49604 31.496,-31.49604 h 346.4565 V 547.52766 c 0,-16.73227 14.7638,-31.49604 31.4961,-31.49604 h 188.9762 c 16.7323,0 31.4961,14.76377 31.4961,31.49604 z M 925.98433,1114.4565 c 0,68.8976 57.08658,125.9842 125.98407,125.9842 h 251.9684 v 234.2518 c -48.2283,35.433 -109.2519,49.2126 -168.307,49.2126 H 275.39417 c -157.48022,0 -262.795112,-94.4882 -262.795112,-254.9212 0,-222.4408 52.165322,-563.97602 340.550972,-563.97602 15.74802,0 26.57479,6.88976 38.3858,16.73228 96.45664,73.81885 189.96052,120.07866 313.97619,120.07866 124.01567,0 217.51955,-46.25981 313.97608,-120.07866 11.8111,-9.84252 22.6378,-16.73228 38.3859,-16.73228 83.6613,0 157.4802,31.49605 213.5825,94.48813 h -219.4881 c -68.89749,0 -125.98407,57.08658 -125.98407,125.98418 z"
     id="path2"
     inkscape:connector-curvature="0"
     style="stroke-width:0.98425138" />
</svg>
